<?xml version="1.0" encoding="UTF-8"?>
<svg width="341px" height="500px" viewBox="0 0 341 500" version="1.1" xmlns="http://www.w3.org/2000/svg" xmlns:xlink="http://www.w3.org/1999/xlink">
    <!-- Generator: Sketch 57.1 (83088) - https://sketch.com -->
    <title>noun_Blockchain_1645658</title>
    <desc>Created with Sketch.</desc>
    <defs>
        <filter x="-3.6%" y="-2.4%" width="107.2%" height="104.9%" filterUnits="objectBoundingBox" id="filter-1">
            <feOffset dx="0" dy="2" in="SourceAlpha" result="shadowOffsetOuter1"></feOffset>
            <feGaussianBlur stdDeviation="2" in="shadowOffsetOuter1" result="shadowBlurOuter1"></feGaussianBlur>
            <feColorMatrix values="0 0 0 0 0   0 0 0 0 0   0 0 0 0 0  0 0 0 0.5 0" type="matrix" in="shadowBlurOuter1" result="shadowMatrixOuter1"></feColorMatrix>
            <feMerge>
                <feMergeNode in="shadowMatrixOuter1"></feMergeNode>
                <feMergeNode in="SourceGraphic"></feMergeNode>
            </feMerge>
        </filter>
    </defs>
    <g id="Page-1" stroke="none" stroke-width="1" fill="none" fill-rule="evenodd" opacity="0.9398484">
        <g id="Artboard" transform="translate(-280.000000, -152.000000)" fill="#B18E4E" fill-rule="nonzero">
            <g id="noun_Blockchain_1645658" transform="translate(284.000000, 154.000000)">
                <g id="Group" filter="url(#filter-1)">
                    <path d="M166.493934,99.5522611 L159.044942,103.951763 L159.044942,94.4081329 L174.306884,94.4081329 C199.686839,94.4081329 220.250425,73.3662286 220.250425,47.4035841 C220.250425,21.4409395 199.680773,0.399035225 174.306884,0.399035225 L105.616012,0.399035225 C80.2360572,0.399035225 59.6664045,21.4409395 59.6664045,47.4035841 C59.6664045,73.3662286 80.2421231,94.4081329 105.616012,94.4081329 L120.871888,94.4081329 L120.871888,126.495331 L0.201849874,197.787114 L0.201849874,394.238205 L166.493934,492.460648 L332.79815,394.238205 L332.79815,197.787114 L166.493934,99.5522611 Z M133.009864,81.997691 L105.622078,81.997691 C86.9753329,81.997691 71.80438,66.4784333 71.80438,47.4035841 C71.80438,28.3287348 86.9753329,12.8094772 105.622078,12.8094772 L174.31295,12.8094772 C192.953629,12.8094772 208.124582,28.3287348 208.124582,47.4035841 C208.124582,66.4784333 192.953629,81.997691 174.31295,81.997691 L146.919098,81.997691 L146.919098,189.800995 C146.130524,190.675931 144.183352,192.127953 139.967514,192.127953 C135.848731,192.127953 133.913691,190.806241 133.01593,189.689301 L133.01593,81.997691 L133.009864,81.997691 Z M159.693999,473.311336 L12.9949485,386.66163 L12.9949485,213.80279 L159.693999,300.44629 L159.693999,473.311336 Z M166.087515,289.115557 L18.6120226,202.019075 L120.871888,141.623659 L120.871888,169.882236 C113.344038,174.616819 108.539802,181.833491 108.800638,189.832021 C109.237387,203.359403 123.789612,213.827611 141.283826,213.225704 C145.827226,213.039547 150.10979,212.108764 154.010199,210.650537 L197.557688,244.859921 L233.30436,223.582218 L169.787747,197.551316 C171.377028,194.473526 172.250525,191.110297 172.159536,187.629168 C171.8987,179.736126 166.72444,172.94141 159.038876,168.721859 L159.038876,119.080092 L166.487868,114.68059 L313.963361,201.777071 L166.087515,289.115557 Z" id="Shape"></path>
                    <path d="M190.58184,47.4035841 C190.58184,35.7253582 181.294864,26.2189597 169.878737,26.2189597 L110.050225,26.2189597 C98.634098,26.2189597 89.3471212,35.7253582 89.3471212,47.4035841 C89.3471212,59.0818099 98.634098,68.5882085 110.050225,68.5882085 L169.878737,68.5882085 C181.288798,68.5882085 190.58184,59.0818099 190.58184,47.4035841 Z M101.472965,47.4035841 C101.472965,42.5573065 105.312714,38.6294016 110.044159,38.6294016 L169.872671,38.6294016 C174.59805,38.6294016 178.443865,42.5573065 178.443865,47.4035841 C178.443865,52.2498617 174.59805,56.1777665 169.872671,56.1777665 L110.044159,56.1777665 C105.312714,56.1777665 101.472965,52.2498617 101.472965,47.4035841 Z" id="Shape"></path>
                </g>
            </g>
        </g>
    </g>
</svg>